# xmcd CD database file
#
# Track frame offsets:
#	150
#	40013
#	86063
#	129751
#	181389
#
# Disc length: 3116 seconds
#
# Revision: 0
# Processed by: cddbd v1.5.1PL2 Copyright (c) Steve Scherf et al.
# Submitted via: CDex 1.51
#
DISCID=340c2a05
DTITLE=Francis LOCKWOOD, Piano, Diego imbert Contrebasse, Benjamin HENOCQ Batterie, Cédric RICARD Saxes. Jonathan JOUBERT guitare, composition, arrengement. - Live à GAVEAU 28/06/2006
DYEAR=2006
DGENRE=Jazz
TTITLE0=Leeloo
TTITLE1=Lueur
TTITLE2=Audrey
TTITLE3=La quete du Spindoubal
TTITLE4=Anouman Blues
EXTD=YEAR: 2006
EXTT0=
EXTT1=
EXTT2=
EXTT3=
EXTT4=
PLAYORDER=
